<svg width="1em" height="1em" viewBox="0 0 64 64" fill="none" xmlns="http://www.w3.org/2000/svg">
    <rect fill="none" width="64" height="64"/>
    <path fill="#fff" fill-opacity="0.8" d="M34,28c0-2.8,2.2-5,5-5l0,0c2.8,0,5,2.2,5,5v30c0,2.8-2.2,5-5,5l0,0c-2.8,0-5-2.2-5-5V28z M20,28
	  c0-2.8,2.2-5,5-5l0,0c2.8,0,5,2.2,5,5v30c0,2.8-2.2,5-5,5l0,0c-2.8,0-5-2.2-5-5V28z"/>
    <path fill="#fff" d="M34,26c0,8.3,6.7,15,15,15s15-6.7,15-15s-6.7-15-15-15S34,17.7,34,26z M30,26c0,8.3-6.7,15-15,15C6.7,41,0,34.3,0,26
    s6.7-15,15-15C23.3,11,30,17.7,30,26z M55,44l0.3,0.9c1,2.6,3.1,4.7,5.8,5.8L62,51l-0.9,0.3c-2.6,1-4.7,3.1-5.8,5.8L55,58l-0.3-0.9
    c-1-2.6-3.1-4.7-5.8-5.8L48,51l0.9-0.3c2.6-1,4.7-3.1,5.8-5.8L55,44z M32,2l0.1,0.2c1,2.6,3.1,4.7,5.8,5.8L38,8l-0.2,0.1
    c-2.6,1-4.7,3.1-5.8,5.8L32,14l-0.1-0.2c-1-2.6-3.1-4.7-5.8-5.8L26,8l0.2-0.1c2.6-1,4.7-3.1,5.8-5.8L32,2z M9,44l0.1,0.1
    c0.8,2.2,2.6,4,4.8,4.8L14,49l-0.1,0.1c-2.2,0.8-4,2.6-4.8,4.8L9,54l-0.1-0.1c-0.8-2.2-2.6-4-4.8-4.8L4,49l0.1-0.1
    c2.2-0.8,4-2.6,4.8-4.8L9,44z"/>
    </svg>