<svg width="20" height="20" viewBox="0 0 20 20" fill="none" xmlns="http://www.w3.org/2000/svg"><path fill-rule="evenodd" clip-rule="evenodd" d="M1.66652 14.9163L1.66667 14.93V15.1167C1.66667 16.8667 3.09167 18.2917 4.84167 18.2917H4.95C6.7 18.2917 8.125 16.8667 8.125 15.1167V13.55C8.125 11.8 6.7 10.375 4.95 10.375H4.84167C4.1186 10.375 3.45102 10.6183 2.91652 11.0272V10.1497C2.88318 8.21634 3.59152 6.40801 4.92485 5.04967C6.24985 3.69967 8.03318 2.95801 9.95818 2.95801C13.8915 2.95801 17.0832 6.15801 17.0832 10.083V11.027C16.5487 10.6182 15.8813 10.375 15.1583 10.375H15.05C13.3 10.375 11.875 11.8 11.875 13.55V15.1167C11.875 16.8667 13.3 18.2917 15.05 18.2917H15.1583C16.9083 18.2917 18.3333 16.8667 18.3333 15.1167V13.55C18.3333 13.5396 18.3333 13.5292 18.3332 13.5188V10.083C18.3332 5.46634 14.5748 1.70801 9.95818 1.70801C7.69985 1.70801 5.59985 2.58301 4.03318 4.17467C2.46652 5.77467 1.62485 7.90801 1.66652 10.1663V14.9163Z" fill="#000"/></svg>